<svg xmlns="http://www.w3.org/2000/svg" version="1.1" width="64" height="64" viewBox="0 0 1000 1000" xml:space="preserve">
  <desc>Created with Fabric.js 3.5.0</desc>
  <defs></defs>
  <rect x="0" y="0" width="100%" height="100%" fill="#181f27"/>
  <g transform="matrix(11 0 0 11 500 500)" id="229863">
    <path style="stroke: none; stroke-width: 1; fill: rgb(213,230,255); fill-rule: nonzero; opacity: 1;"
      transform="translate(-29.6475, -18.1533)"
      d="M 28.5488 17.8115 C 28.5488 21.8317 27.8164 25.1927 26.3516 27.8945 C 24.8867 30.5801 22.7627 32.6064 19.9795 33.9736 C 17.2126 35.3245 13.8516 36 9.89648 36 H 0.204102 V 0.306641 H 10.9707 C 14.6003 0.306641 17.7253 0.973958 20.3457 2.30859 C 22.9661 3.62695 24.9844 5.58822 26.4004 8.19238 C 27.8327 10.7803 28.5488 13.9867 28.5488 17.8115 Z M 24.1787 17.958 C 24.1787 14.7516 23.6416 12.1068 22.5674 10.0234 C 21.5094 7.9401 19.9469 6.39388 17.8799 5.38477 C 15.8291 4.35938 13.3145 3.84668 10.3359 3.84668 H 4.35449 V 32.4355 H 9.4082 C 14.3236 32.4355 18.0101 31.223 20.4678 28.7979 C 22.9417 26.3727 24.1787 22.7594 24.1787 17.958 Z M 45.8096 0.306641 C 50.4157 0.306641 53.7767 1.20996 55.8926 3.0166 C 58.0247 4.80697 59.0908 7.37858 59.0908 10.7314 C 59.0908 12.2451 58.8385 13.6855 58.334 15.0527 C 57.8457 16.4036 57.0482 17.5999 55.9414 18.6416 C 54.8346 19.667 53.3779 20.4808 51.5713 21.083 C 49.7809 21.6689 47.5837 21.9619 44.9795 21.9619 H 40.6338 V 36 H 36.4834 V 0.306641 H 45.8096 Z M 45.4189 3.84668 H 40.6338 V 18.3975 H 44.5156 C 46.7943 18.3975 48.6904 18.1533 50.2041 17.665 C 51.734 17.1768 52.8815 16.3874 53.6465 15.2969 C 54.4115 14.1901 54.7939 12.7253 54.7939 10.9023 C 54.7939 8.52604 54.0371 6.76009 52.5234 5.60449 C 51.0098 4.43262 48.6416 3.84668 45.4189 3.84668 Z"
      stroke-linecap="round"/>
  </g>
</svg>

